<svg width="30" height="30" viewBox="0 0 30 30" fill="none" xmlns="http://www.w3.org/2000/svg">
<g clip-path="url(#clip0_15_282)">
<rect width="30" height="30" fill="white"/>
<path fill-rule="evenodd" clip-rule="evenodd" d="M13.0827 0.140353C0.81052 1.8723 -4.31731 16.5244 4.23837 25.4116C12.5061 33.9994 26.969 29.9222 29.6376 18.2513C31.9104 8.31104 23.1438 -1.27967 13.0827 0.140353ZM10.399 9.15326C14.6804 13.3812 15.3694 13.3806 19.601 9.14512L22.0634 6.68054H23.532H25.0008L22.0649 9.63149C15.6994 16.0298 14.4117 16.0516 8.1822 9.86641L4.97822 6.68521L6.4367 6.68294L7.89504 6.68054L10.399 9.15326ZM16.8769 16.0231C17.9202 16.3826 18.2356 16.6455 21.8023 20.128L25.1173 23.3647H23.5988H22.0802L19.4699 20.7822C16.6695 18.0116 16.2949 17.7588 14.9906 17.7588C13.6864 17.7588 13.3118 18.0116 10.5114 20.7822L7.90105 23.3647L6.43964 23.3632L4.97822 23.3617L8.38245 19.9793C12.8472 15.5432 13.968 15.0211 16.8769 16.0231Z" fill="#C7EAFF"/>
</g>
<defs>
<clipPath id="clip0_15_282">
<rect width="30" height="30" fill="white"/>
</clipPath>
</defs>
</svg>
