<svg width="180" height="40" viewBox="0 0 180 40" fill="none" xmlns="http://www.w3.org/2000/svg">
<path d="M38 20.5C38 28.4784 31.3144 35 23 35C14.6856 35 8 28.4784 8 20.5C8 12.5216 14.6856 6 23 6C31.3144 6 38 12.5216 38 20.5Z" stroke="#03DBE8" stroke-width="2"/>
<circle cx="9.5" cy="13.5" r="2.5" fill="white"/>
<circle cx="36.5" cy="14.5" r="2.5" fill="white"/>
<circle cx="23.5" cy="5.5" r="2.5" fill="white"/>
<circle cx="9.5" cy="28.5" r="2.5" fill="white"/>
<circle cx="36.5" cy="28.5" r="2.5" fill="white"/>
<circle cx="22.5" cy="35.5" r="2.5" fill="white"/>
<circle cx="23" cy="20" r="8" stroke="#15939A" stroke-width="2"/>
<circle cx="14.5" cy="20.5" r="2.5" fill="#ACF0F3"/>
<circle cx="30.5" cy="20.5" r="2.5" fill="#ACF0F3"/>
<circle cx="18.5" cy="13.5" r="2.5" fill="#ACF0F3"/>
<circle cx="27.5" cy="13.5" r="2.5" fill="#ACF0F3"/>
<circle cx="27.5" cy="27.5" r="2.5" fill="#ACF0F3"/>
<circle cx="18.5" cy="27.5" r="2.5" fill="#ACF0F3"/>
<path d="M59.09 23.26C58.3433 23.26 57.62 23.1433 56.92 22.91C56.2267 22.6767 55.62 22.3433 55.1 21.91C54.58 21.4767 54.2133 20.96 54 20.36L55.31 19.87C55.4567 20.2833 55.7233 20.64 56.11 20.94C56.5033 21.2333 56.96 21.46 57.48 21.62C58.0067 21.78 58.5433 21.86 59.09 21.86C59.73 21.86 60.3267 21.7533 60.88 21.54C61.4333 21.3267 61.88 21.03 62.22 20.65C62.56 20.2633 62.73 19.81 62.73 19.29C62.73 18.7633 62.5533 18.33 62.2 17.99C61.8467 17.65 61.39 17.3833 60.83 17.19C60.2767 16.99 59.6967 16.8367 59.09 16.73C58.1367 16.5633 57.28 16.3367 56.52 16.05C55.7667 15.7633 55.17 15.36 54.73 14.84C54.29 14.3133 54.07 13.62 54.07 12.76C54.07 11.9533 54.3033 11.2533 54.77 10.66C55.2367 10.0667 55.85 9.60667 56.61 9.28C57.3767 8.95333 58.2033 8.79 59.09 8.79C59.8167 8.79 60.5267 8.90333 61.22 9.13C61.9133 9.35667 62.5233 9.68667 63.05 10.12C63.5833 10.5533 63.9667 11.0833 64.2 11.71L62.87 12.19C62.7233 11.77 62.4533 11.4133 62.06 11.12C61.6733 10.82 61.22 10.5933 60.7 10.44C60.18 10.28 59.6433 10.2 59.09 10.2C58.4567 10.1933 57.8633 10.3 57.31 10.52C56.7633 10.7333 56.32 11.0333 55.98 11.42C55.64 11.8 55.47 12.2467 55.47 12.76C55.47 13.36 55.6267 13.8233 55.94 14.15C56.26 14.47 56.6933 14.71 57.24 14.87C57.7867 15.03 58.4033 15.1733 59.09 15.3C59.9833 15.4533 60.8133 15.6933 61.58 16.02C62.3467 16.34 62.9633 16.77 63.43 17.31C63.8967 17.8433 64.13 18.5033 64.13 19.29C64.13 20.09 63.8967 20.79 63.43 21.39C62.9633 21.9833 62.3467 22.4433 61.58 22.77C60.82 23.0967 59.99 23.26 59.09 23.26ZM68.807 23V9H73.437C74.4037 9 75.3104 9.18333 76.157 9.55C77.0037 9.91 77.747 10.4133 78.387 11.06C79.027 11.7 79.527 12.4433 79.887 13.29C80.2537 14.13 80.437 15.0333 80.437 16C80.437 16.9667 80.2537 17.8733 79.887 18.72C79.527 19.56 79.027 20.3033 78.387 20.95C77.747 21.59 77.0037 22.0933 76.157 22.46C75.3104 22.82 74.4037 23 73.437 23H68.807ZM70.207 21.6H73.437C74.2104 21.6 74.9337 21.4567 75.607 21.17C76.287 20.8767 76.8837 20.4733 77.397 19.96C77.9104 19.4467 78.3104 18.8533 78.597 18.18C78.8904 17.5 79.037 16.7733 79.037 16C79.037 15.2267 78.8904 14.5033 78.597 13.83C78.3104 13.15 77.907 12.5533 77.387 12.04C76.8737 11.5267 76.2804 11.1267 75.607 10.84C74.9337 10.5467 74.2104 10.4 73.437 10.4H70.207V21.6ZM86.7338 9H88.4738L93.5738 23H92.0838L90.9938 20H84.2238L83.1338 23H81.6438L86.7338 9ZM84.7338 18.6H90.4738L87.6038 10.72L84.7338 18.6ZM101.878 23.26C100.931 23.26 100.041 23.0733 99.2081 22.7C98.3748 22.32 97.6415 21.7967 97.0081 21.13C96.3748 20.4633 95.8781 19.6933 95.5181 18.82C95.1581 17.94 94.9781 17 94.9781 16C94.9781 15 95.1581 14.0633 95.5181 13.19C95.8781 12.31 96.3748 11.5367 97.0081 10.87C97.6415 10.2033 98.3748 9.68333 99.2081 9.31C100.041 8.93 100.931 8.74 101.878 8.74C102.831 8.74 103.725 8.93 104.558 9.31C105.391 9.68333 106.125 10.2033 106.758 10.87C107.391 11.5367 107.885 12.31 108.238 13.19C108.598 14.0633 108.778 15 108.778 16C108.778 17 108.598 17.94 108.238 18.82C107.885 19.6933 107.391 20.4633 106.758 21.13C106.125 21.7967 105.391 22.32 104.558 22.7C103.725 23.0733 102.831 23.26 101.878 23.26ZM101.878 21.86C102.645 21.86 103.358 21.7067 104.018 21.4C104.685 21.0867 105.268 20.66 105.768 20.12C106.275 19.58 106.668 18.9567 106.948 18.25C107.235 17.5433 107.378 16.7933 107.378 16C107.378 15.2 107.235 14.4467 106.948 13.74C106.661 13.0267 106.265 12.4033 105.758 11.87C105.258 11.33 104.675 10.9067 104.008 10.6C103.348 10.2933 102.638 10.14 101.878 10.14C101.111 10.14 100.395 10.2967 99.7281 10.61C99.0681 10.9167 98.4848 11.34 97.9781 11.88C97.4781 12.42 97.0848 13.0433 96.7981 13.75C96.5181 14.4567 96.3781 15.2067 96.3781 16C96.3781 16.8067 96.5215 17.5633 96.8081 18.27C97.0948 18.9767 97.4881 19.6 97.9881 20.14C98.4948 20.68 99.0781 21.1033 99.7381 21.41C100.405 21.71 101.118 21.86 101.878 21.86Z" fill="white"/>
<path d="M57.145 34.095C56.8717 34.0883 56.605 34.0383 56.345 33.945C56.085 33.8517 55.8583 33.725 55.665 33.565C55.4717 33.405 55.3333 33.2233 55.25 33.02L55.855 32.76C55.9083 32.89 56.0067 33.01 56.15 33.12C56.2967 33.2267 56.4633 33.3133 56.65 33.38C56.8367 33.4433 57.0217 33.475 57.205 33.475C57.4083 33.475 57.5983 33.4417 57.775 33.375C57.9517 33.3083 58.095 33.2133 58.205 33.09C58.3183 32.9633 58.375 32.815 58.375 32.645C58.375 32.4617 58.315 32.3183 58.195 32.215C58.075 32.1083 57.9233 32.025 57.74 31.965C57.5567 31.9017 57.3683 31.8417 57.175 31.785C56.8217 31.6883 56.51 31.5817 56.24 31.465C55.97 31.3483 55.7583 31.2 55.605 31.02C55.455 30.8367 55.38 30.6017 55.38 30.315C55.38 30.0117 55.465 29.75 55.635 29.53C55.8083 29.3067 56.0333 29.135 56.31 29.015C56.59 28.8917 56.8883 28.83 57.205 28.83C57.6117 28.83 57.9817 28.9183 58.315 29.095C58.6517 29.2717 58.895 29.5067 59.045 29.8L58.48 30.135C58.42 29.9983 58.325 29.88 58.195 29.78C58.065 29.68 57.9167 29.6017 57.75 29.545C57.5867 29.4883 57.42 29.4583 57.25 29.455C57.0367 29.4517 56.8383 29.4833 56.655 29.55C56.4717 29.6133 56.3233 29.7083 56.21 29.835C56.1 29.9617 56.045 30.1167 56.045 30.3C56.045 30.4833 56.1 30.6233 56.21 30.72C56.32 30.8133 56.4683 30.89 56.655 30.95C56.845 31.0067 57.0583 31.0733 57.295 31.15C57.5983 31.2467 57.8833 31.3567 58.15 31.48C58.4167 31.6033 58.6317 31.7567 58.795 31.94C58.9583 32.1233 59.0383 32.355 59.035 32.635C59.035 32.935 58.945 33.1967 58.765 33.42C58.585 33.6433 58.3517 33.815 58.065 33.935C57.7783 34.0517 57.4717 34.105 57.145 34.095ZM59.9969 32.085V29H60.6969V31.945C60.6969 32.2183 60.7635 32.4667 60.8969 32.69C61.0302 32.9133 61.2085 33.0917 61.4319 33.225C61.6585 33.3583 61.9069 33.425 62.1769 33.425C62.4502 33.425 62.6969 33.3583 62.9169 33.225C63.1402 33.0917 63.3185 32.9133 63.4519 32.69C63.5852 32.4667 63.6519 32.2183 63.6519 31.945V29H64.3519L64.3569 34H63.6569L63.6519 33.3C63.4752 33.5533 63.2452 33.755 62.9619 33.905C62.6819 34.055 62.3752 34.13 62.0419 34.13C61.6652 34.13 61.3219 34.0383 61.0119 33.855C60.7019 33.6717 60.4552 33.425 60.2719 33.115C60.0885 32.805 59.9969 32.4617 59.9969 32.085ZM67.1981 34.095C66.9248 34.0883 66.6581 34.0383 66.3981 33.945C66.1381 33.8517 65.9115 33.725 65.7181 33.565C65.5248 33.405 65.3865 33.2233 65.3031 33.02L65.9081 32.76C65.9615 32.89 66.0598 33.01 66.2031 33.12C66.3498 33.2267 66.5165 33.3133 66.7031 33.38C66.8898 33.4433 67.0748 33.475 67.2581 33.475C67.4615 33.475 67.6515 33.4417 67.8281 33.375C68.0048 33.3083 68.1481 33.2133 68.2581 33.09C68.3715 32.9633 68.4281 32.815 68.4281 32.645C68.4281 32.4617 68.3681 32.3183 68.2481 32.215C68.1281 32.1083 67.9765 32.025 67.7931 31.965C67.6098 31.9017 67.4215 31.8417 67.2281 31.785C66.8748 31.6883 66.5631 31.5817 66.2931 31.465C66.0231 31.3483 65.8115 31.2 65.6581 31.02C65.5081 30.8367 65.4331 30.6017 65.4331 30.315C65.4331 30.0117 65.5181 29.75 65.6881 29.53C65.8615 29.3067 66.0865 29.135 66.3631 29.015C66.6431 28.8917 66.9415 28.83 67.2581 28.83C67.6648 28.83 68.0348 28.9183 68.3681 29.095C68.7048 29.2717 68.9481 29.5067 69.0981 29.8L68.5331 30.135C68.4731 29.9983 68.3781 29.88 68.2481 29.78C68.1181 29.68 67.9698 29.6017 67.8031 29.545C67.6398 29.4883 67.4731 29.4583 67.3031 29.455C67.0898 29.4517 66.8915 29.4833 66.7081 29.55C66.5248 29.6133 66.3765 29.7083 66.2631 29.835C66.1531 29.9617 66.0981 30.1167 66.0981 30.3C66.0981 30.4833 66.1531 30.6233 66.2631 30.72C66.3731 30.8133 66.5215 30.89 66.7081 30.95C66.8981 31.0067 67.1115 31.0733 67.3481 31.15C67.6515 31.2467 67.9365 31.3567 68.2031 31.48C68.4698 31.6033 68.6848 31.7567 68.8481 31.94C69.0115 32.1233 69.0915 32.355 69.0881 32.635C69.0881 32.935 68.9981 33.1967 68.8181 33.42C68.6381 33.6433 68.4048 33.815 68.1181 33.935C67.8315 34.0517 67.5248 34.105 67.1981 34.095ZM72.805 29.7H71.61L71.605 34H70.905L70.91 29.7H70.005V29H70.91L70.905 27.43H71.605L71.61 29H72.805V29.7ZM77.9705 29H78.6705V34H77.9705L77.9455 33.07C77.7822 33.3867 77.5539 33.6433 77.2605 33.84C76.9672 34.0333 76.6172 34.13 76.2105 34.13C75.8439 34.13 75.5005 34.0617 75.1805 33.925C74.8605 33.785 74.5789 33.5933 74.3355 33.35C74.0922 33.1067 73.9022 32.825 73.7655 32.505C73.6289 32.185 73.5605 31.8417 73.5605 31.475C73.5605 31.115 73.6272 30.7767 73.7605 30.46C73.8972 30.1433 74.0839 29.865 74.3205 29.625C74.5605 29.385 74.8372 29.1983 75.1505 29.065C75.4672 28.9283 75.8055 28.86 76.1655 28.86C76.5822 28.86 76.9455 28.96 77.2555 29.16C77.5655 29.3567 77.8122 29.615 77.9955 29.935L77.9705 29ZM76.1955 33.45C76.5522 33.45 76.8589 33.3633 77.1155 33.19C77.3722 33.0133 77.5689 32.7767 77.7055 32.48C77.8455 32.1833 77.9155 31.8567 77.9155 31.5C77.9155 31.1333 77.8455 30.8033 77.7055 30.51C77.5655 30.2133 77.3672 29.9783 77.1105 29.805C76.8539 29.6317 76.5489 29.545 76.1955 29.545C75.8422 29.545 75.5189 29.6333 75.2255 29.81C74.9355 29.9833 74.7039 30.2183 74.5305 30.515C74.3605 30.8117 74.2755 31.14 74.2755 31.5C74.2755 31.8633 74.3639 32.1933 74.5405 32.49C74.7172 32.7833 74.9505 33.0167 75.2405 33.19C75.5339 33.3633 75.8522 33.45 76.1955 33.45ZM79.9711 29H80.6711V34H79.9711V29ZM80.3261 28.125C80.2128 28.125 80.1161 28.0883 80.0361 28.015C79.9594 27.9383 79.9211 27.8433 79.9211 27.73C79.9211 27.6167 79.9594 27.5233 80.0361 27.45C80.1161 27.3733 80.2128 27.335 80.3261 27.335C80.4361 27.335 80.5294 27.3733 80.6061 27.45C80.6861 27.5233 80.7261 27.6167 80.7261 27.73C80.7261 27.8433 80.6878 27.9383 80.6111 28.015C80.5344 28.0883 80.4394 28.125 80.3261 28.125ZM86.5159 30.905V34H85.8159V31.045C85.8159 30.7717 85.7492 30.5233 85.6159 30.3C85.4825 30.0767 85.3042 29.8983 85.0809 29.765C84.8575 29.6317 84.6092 29.565 84.3359 29.565C84.0659 29.565 83.8175 29.6317 83.5909 29.765C83.3675 29.8983 83.1892 30.0767 83.0559 30.3C82.9225 30.5233 82.8559 30.7717 82.8559 31.045V34H82.1559V29H82.8559V29.69C83.0325 29.4367 83.2625 29.235 83.5459 29.085C83.8292 28.935 84.1375 28.86 84.4709 28.86C84.8475 28.86 85.1909 28.9517 85.5009 29.135C85.8109 29.3183 86.0575 29.565 86.2409 29.875C86.4242 30.185 86.5159 30.5283 86.5159 30.905ZM91.8295 29H92.5295V34H91.8295L91.8045 33.07C91.6412 33.3867 91.4129 33.6433 91.1195 33.84C90.8262 34.0333 90.4762 34.13 90.0695 34.13C89.7029 34.13 89.3595 34.0617 89.0395 33.925C88.7195 33.785 88.4379 33.5933 88.1945 33.35C87.9512 33.1067 87.7612 32.825 87.6245 32.505C87.4879 32.185 87.4195 31.8417 87.4195 31.475C87.4195 31.115 87.4862 30.7767 87.6195 30.46C87.7562 30.1433 87.9429 29.865 88.1795 29.625C88.4195 29.385 88.6962 29.1983 89.0095 29.065C89.3262 28.9283 89.6645 28.86 90.0245 28.86C90.4412 28.86 90.8045 28.96 91.1145 29.16C91.4245 29.3567 91.6712 29.615 91.8545 29.935L91.8295 29ZM90.0545 33.45C90.4112 33.45 90.7179 33.3633 90.9745 33.19C91.2312 33.0133 91.4279 32.7767 91.5645 32.48C91.7045 32.1833 91.7745 31.8567 91.7745 31.5C91.7745 31.1333 91.7045 30.8033 91.5645 30.51C91.4245 30.2133 91.2262 29.9783 90.9695 29.805C90.7129 29.6317 90.4079 29.545 90.0545 29.545C89.7012 29.545 89.3779 29.6333 89.0845 29.81C88.7945 29.9833 88.5629 30.2183 88.3895 30.515C88.2195 30.8117 88.1345 31.14 88.1345 31.5C88.1345 31.8633 88.2229 32.1933 88.3995 32.49C88.5762 32.7833 88.8095 33.0167 89.0995 33.19C89.3929 33.3633 89.7112 33.45 90.0545 33.45ZM96.3784 28.86C96.8651 28.86 97.3068 28.9783 97.7034 29.215C98.1034 29.4517 98.4218 29.77 98.6584 30.17C98.8951 30.5667 99.0134 31.0083 99.0134 31.495C99.0134 31.8583 98.9451 32.2 98.8084 32.52C98.6718 32.8367 98.4818 33.1167 98.2384 33.36C97.9984 33.6 97.7184 33.7883 97.3984 33.925C97.0818 34.0617 96.7418 34.13 96.3784 34.13C95.9651 34.13 95.6084 34.0317 95.3084 33.835C95.0084 33.6383 94.7718 33.3817 94.5984 33.065V34H93.8984V26.5H94.5984V29.925C94.7718 29.6083 95.0084 29.3517 95.3084 29.155C95.6084 28.9583 95.9651 28.86 96.3784 28.86ZM96.3734 33.445C96.7301 33.445 97.0534 33.3583 97.3434 33.185C97.6334 33.0083 97.8651 32.7717 98.0384 32.475C98.2118 32.1783 98.2984 31.8517 98.2984 31.495C98.2984 31.1283 98.2101 30.7983 98.0334 30.505C97.8568 30.2083 97.6218 29.9733 97.3284 29.8C97.0384 29.6267 96.7201 29.54 96.3734 29.54C96.0201 29.54 95.7134 29.6283 95.4534 29.805C95.1968 29.9817 94.9984 30.2183 94.8584 30.515C94.7218 30.8117 94.6534 31.1383 94.6534 31.495C94.6534 31.8583 94.7234 32.1883 94.8634 32.485C95.0034 32.7783 95.2018 33.0117 95.4584 33.185C95.7184 33.3583 96.0234 33.445 96.3734 33.445ZM100.126 34V26.5H100.826V34H100.126ZM104.491 34.13C104.031 34.13 103.611 34.0117 103.231 33.775C102.855 33.5383 102.553 33.2217 102.326 32.825C102.103 32.425 101.991 31.9833 101.991 31.5C101.991 31.1333 102.056 30.7917 102.186 30.475C102.316 30.155 102.495 29.875 102.721 29.635C102.951 29.3917 103.218 29.2017 103.521 29.065C103.825 28.9283 104.148 28.86 104.491 28.86C104.861 28.86 105.201 28.9333 105.511 29.08C105.825 29.2267 106.093 29.4317 106.316 29.695C106.543 29.9583 106.713 30.2667 106.826 30.62C106.943 30.9733 106.991 31.355 106.971 31.765H102.731C102.771 32.0817 102.871 32.365 103.031 32.615C103.195 32.865 103.401 33.0633 103.651 33.21C103.905 33.3533 104.185 33.4267 104.491 33.43C104.825 33.43 105.125 33.3433 105.391 33.17C105.661 32.9967 105.878 32.7583 106.041 32.455L106.751 32.62C106.551 33.0633 106.25 33.4267 105.846 33.71C105.443 33.99 104.991 34.13 104.491 34.13ZM102.711 31.2H106.266C106.243 30.89 106.148 30.6067 105.981 30.35C105.818 30.09 105.606 29.8833 105.346 29.73C105.086 29.5733 104.801 29.495 104.491 29.495C104.181 29.495 103.898 29.5717 103.641 29.725C103.385 29.875 103.175 30.08 103.011 30.34C102.848 30.5967 102.748 30.8833 102.711 31.2ZM110.88 34V27H113.195C113.678 27 114.131 27.0917 114.555 27.275C114.978 27.455 115.35 27.7067 115.67 28.03C115.99 28.35 116.24 28.7217 116.42 29.145C116.603 29.565 116.695 30.0167 116.695 30.5C116.695 30.9833 116.603 31.4367 116.42 31.86C116.24 32.28 115.99 32.6517 115.67 32.975C115.35 33.295 114.978 33.5467 114.555 33.73C114.131 33.91 113.678 34 113.195 34H110.88ZM111.58 33.3H113.195C113.581 33.3 113.943 33.2283 114.28 33.085C114.62 32.9383 114.918 32.7367 115.175 32.48C115.431 32.2233 115.631 31.9267 115.775 31.59C115.921 31.25 115.995 30.8867 115.995 30.5C115.995 30.1133 115.921 29.7517 115.775 29.415C115.631 29.075 115.43 28.7767 115.17 28.52C114.913 28.2633 114.616 28.0633 114.28 27.92C113.943 27.7733 113.581 27.7 113.195 27.7H111.58V33.3ZM119.843 27H120.713L123.263 34H122.518L121.973 32.5H118.588L118.043 34H117.298L119.843 27ZM118.843 31.8H121.713L120.278 27.86L118.843 31.8ZM127.415 34.13C126.942 34.13 126.497 34.0367 126.08 33.85C125.664 33.66 125.297 33.3983 124.98 33.065C124.664 32.7317 124.415 32.3467 124.235 31.91C124.055 31.47 123.965 31 123.965 30.5C123.965 30 124.055 29.5317 124.235 29.095C124.415 28.655 124.664 28.2683 124.98 27.935C125.297 27.6017 125.664 27.3417 126.08 27.155C126.497 26.965 126.942 26.87 127.415 26.87C127.892 26.87 128.339 26.965 128.755 27.155C129.172 27.3417 129.539 27.6017 129.855 27.935C130.172 28.2683 130.419 28.655 130.595 29.095C130.775 29.5317 130.865 30 130.865 30.5C130.865 31 130.775 31.47 130.595 31.91C130.419 32.3467 130.172 32.7317 129.855 33.065C129.539 33.3983 129.172 33.66 128.755 33.85C128.339 34.0367 127.892 34.13 127.415 34.13ZM127.415 33.43C127.799 33.43 128.155 33.3533 128.485 33.2C128.819 33.0433 129.11 32.83 129.36 32.56C129.614 32.29 129.81 31.9783 129.95 31.625C130.094 31.2717 130.165 30.8967 130.165 30.5C130.165 30.1 130.094 29.7233 129.95 29.37C129.807 29.0133 129.609 28.7017 129.355 28.435C129.105 28.165 128.814 27.9533 128.48 27.8C128.15 27.6467 127.795 27.57 127.415 27.57C127.032 27.57 126.674 27.6483 126.34 27.805C126.01 27.9583 125.719 28.17 125.465 28.44C125.215 28.71 125.019 29.0217 124.875 29.375C124.735 29.7283 124.665 30.1033 124.665 30.5C124.665 30.9033 124.737 31.2817 124.88 31.635C125.024 31.9883 125.22 32.3 125.47 32.57C125.724 32.84 126.015 33.0517 126.345 33.205C126.679 33.355 127.035 33.43 127.415 33.43Z" fill="white"/>
</svg>
